<svg xmlns="http://www.w3.org/2000/svg" viewBox="0 0 32 32">
  <circle cx="16" cy="16" r="16" fill="#7360F2"/>
  <path fill="white" d="M22.3 9.7C20.7 8.3 18.5 7.6 16 7.6h-.1c-5 0-8.8 3.7-8.8 8.6 0 1.6.4 3.1 1.2 4.4l-1.3 4.8 4.9-1.3c1.2.7 2.6 1 4 1h.1c5 0 8.8-3.7 8.8-8.6 0-2.3-.9-4.4-2.5-5.8zm-6.3 13.2h-.1c-1.3 0-2.5-.3-3.6-1l-.3-.2-2.8.7.8-2.8-.2-.3c-.7-1.1-1.1-2.4-1.1-3.8 0-3.9 3.2-7.1 7.2-7.1 1.9 0 3.7.7 5 2.1 1.3 1.3 2 3.1 2 4.9 0 4-3.2 7.2-7 7.2zm3.9-5.4c-.2-.1-1.3-.6-1.5-.7-.2-.1-.3-.1-.5.1-.1.2-.6.7-.7.9-.1.2-.3.2-.5.1-.2-.1-1-.4-1.9-1.2-.7-.6-1.2-1.4-1.3-1.6-.1-.2 0-.4.1-.5.1-.1.2-.3.3-.4.1-.1.1-.2.2-.4 0-.1 0-.3-.1-.4-.1-.1-.5-1.2-.7-1.6-.2-.4-.4-.4-.5-.4h-.5c-.2 0-.4.1-.6.3-.2.2-.8.8-.8 1.9 0 1.1.8 2.2.9 2.4.1.1 1.6 2.5 3.9 3.4.5.2 1 .4 1.3.5.6.2 1.1.1 1.5.1.5-.1 1.4-.6 1.6-1.1.2-.5.2-1 .1-1.1-.1-.1-.2-.2-.4-.3z"/>
</svg>