<svg xmlns="http://www.w3.org/2000/svg" viewBox="0 0 32 32">
  <circle cx="16" cy="16" r="16" fill="#25D366"/>
  <path fill="white" d="M16 5C10 5 5 10 5 16c0 1.9.5 3.7 1.4 5.3L5 27l5.9-1.5A11 11 0 0 0 16 27c6 0 11-5 11-11S22 5 16 5zm5.8 15.2c-.2.6-1.3 1.2-1.8 1.2-.5.1-1 .3-3.2-.7-2.7-1.1-4.4-3.9-4.5-4.1-.2-.2-1.2-1.6-1.2-3s.8-2.2 1-2.4c.3-.2.6-.3.8-.3h.6c.2 0 .4.1.6.5.2.5.8 2 .9 2.1.1.1.1.3 0 .5-.1.2-.2.3-.3.5-.1.1-.3.3-.2.6.1.2.6 1 1.3 1.6.9.8 1.7 1 1.9 1.1.2.1.4.1.5-.1.1-.2.6-.7.8-.9.2-.2.3-.2.5-.1l1.7.8c.2.1.4.2.4.3.1.2.1.8-.1 1.4z"/>
</svg>